<?xml version="1.0" encoding="UTF-8"?>
<svg xmlns="http://www.w3.org/2000/svg" xmlns:xlink="http://www.w3.org/1999/xlink" width="px" height="px" viewBox="0 0 400 400" version="1.1">
<g id="surface1">
<rect x="0" y="0" width="400" height="400" style="fill:rgb(0%,0%,0%);fill-opacity:1;stroke:none;"/>
<path style=" stroke:none;fill-rule:nonzero;fill:rgb(100%,100%,100%);fill-opacity:1;" d="M 154.617188 200 L 338.460938 200 C 343.847656 200 349.230469 196.152344 350 190.769531 L 383.847656 72.308594 C 386.152344 63.847656 380 56.921875 372.308594 56.921875 L 88.460938 56.921875 L 83.847656 39.230469 C 81.539062 30.769531 73.847656 25.382812 66.152344 25.382812 L 35.382812 25.382812 C 25.382812 25.382812 16.152344 33.078125 15.382812 43.078125 C 14.617188 53.847656 23.847656 63.078125 33.847656 63.078125 L 51.539062 63.078125 L 110 260.769531 C 112.308594 269.230469 119.230469 274.617188 127.691406 274.617188 L 344.617188 274.617188 C 354.617188 274.617188 363.847656 266.921875 364.617188 256.921875 C 365.382812 246.152344 356.152344 236.921875 346.152344 236.921875 L 155.382812 236.921875 C 146.921875 236.921875 140 231.539062 137.691406 223.847656 L 137.691406 223.078125 C 133.847656 211.539062 143.078125 200 154.617188 200 Z M 154.617188 200 "/>
<path style=" stroke:none;fill-rule:nonzero;fill:rgb(100%,100%,100%);fill-opacity:1;" d="M 189.230469 343.078125 C 189.230469 326.082031 175.453125 312.308594 158.460938 312.308594 C 141.46875 312.308594 127.691406 326.082031 127.691406 343.078125 C 127.691406 360.070312 141.46875 373.847656 158.460938 373.847656 C 175.453125 373.847656 189.230469 360.070312 189.230469 343.078125 Z M 189.230469 343.078125 "/>
<path style=" stroke:none;fill-rule:nonzero;fill:rgb(100%,100%,100%);fill-opacity:1;" d="M 339.230469 343.078125 C 339.230469 326.082031 325.453125 312.308594 308.460938 312.308594 C 291.46875 312.308594 277.691406 326.082031 277.691406 343.078125 C 277.691406 360.070312 291.46875 373.847656 308.460938 373.847656 C 325.453125 373.847656 339.230469 360.070312 339.230469 343.078125 Z M 339.230469 343.078125 "/>
</g>
</svg>
