<svg width="24" height="24" version="1.1" xmlns="http://www.w3.org/2000/svg" desc="Created with imagetracer.js version 1.2.6" ><path fill="rgb(0,0,0)" stroke="rgb(0,0,0)" stroke-width="1" opacity="1" d="M 0 0 L 24 0 L 24 24 L 0 24 L 0 0 Z M 10 3 Q 7 4 8 10 Q 9 12 15 11 Q 17 10 16 5 Q 15 2 10 3 Z M 8 14 L 5 15 Q 2 16 3 21 L 21 21 Q 21 21 21 17 Q 17 12 8 14 Z " /><path fill="rgb(237,237,237)" stroke="rgb(237,237,237)" stroke-width="1" opacity="1" d="M 10.5 14 L 14 14.5 L 10.5 15 L 10.5 14 Z " /><path fill="rgb(255,255,255)" stroke="rgb(255,255,255)" stroke-width="1" opacity="1" d="M 10.5 4 Q 14.3 3.3 15 5.5 Q 15.8 9.3 13.5 10 Q 9.8 10.8 9 8.5 Q 8.3 4.8 10.5 4 Z " /><path fill="rgb(255,255,255)" stroke="rgb(255,255,255)" stroke-width="1" opacity="1" d="M 7.5 15 Q 18 13 21 18.5 L 19.5 21 L 4.5 21 L 3 19.5 L 5.5 16 L 7.5 15 Z " /><path fill="rgb(35,35,35)" stroke="rgb(35,35,35)" stroke-width="1" opacity="1" d="M 9.5 3 L 8.5 5 L 9.5 3 Z " /><path fill="rgb(35,35,35)" stroke="rgb(35,35,35)" stroke-width="1" opacity="1" d="M 14.5 3 L 15.5 5 L 14.5 3 Z " /><path fill="rgb(35,35,35)" stroke="rgb(35,35,35)" stroke-width="1" opacity="1" d="M 8.5 9 L 9.5 11 L 8.5 9 Z " /><path fill="rgb(35,35,35)" stroke="rgb(35,35,35)" stroke-width="1" opacity="1" d="M 15.5 9 L 14.5 11 L 15.5 9 Z " /></svg>