<?xml version="1.0" encoding="UTF-8"?>
<svg xmlns="http://www.w3.org/2000/svg" xmlns:xlink="http://www.w3.org/1999/xlink" width="px" height="px" viewBox="0 0 12 12" version="1.1">
<g id="surface1">
<rect x="0" y="0" width="12" height="12" style="fill:rgb(0%,0%,0%);fill-opacity:1;stroke:none;"/>
<path style=" stroke:none;fill-rule:nonzero;fill:rgb(100%,100%,100%);fill-opacity:1;" d="M 4.835938 1 L 4.589844 2.261719 C 4.175781 2.417969 3.796875 2.632812 3.464844 2.90625 L 2.253906 2.488281 L 1.085938 4.511719 L 2.054688 5.355469 C 2.023438 5.566406 2 5.78125 2 6 C 2 6.21875 2.023438 6.433594 2.054688 6.648438 L 1.085938 7.488281 L 2.253906 9.511719 L 3.464844 9.09375 C 3.796875 9.367188 4.175781 9.582031 4.589844 9.738281 L 4.835938 11 L 7.167969 11 L 7.414062 9.738281 C 7.824219 9.582031 8.203125 9.367188 8.535156 9.09375 L 9.746094 9.511719 L 10.914062 7.488281 L 9.945312 6.648438 C 9.976562 6.433594 10 6.21875 10 6 C 10 5.78125 9.976562 5.566406 9.945312 5.355469 L 10.914062 4.511719 L 9.746094 2.488281 L 8.535156 2.90625 C 8.203125 2.632812 7.824219 2.417969 7.414062 2.261719 L 7.167969 1 Z M 6 4 C 7.105469 4 8 4.894531 8 6 C 8 7.105469 7.105469 8 6 8 C 4.894531 8 4 7.105469 4 6 C 4 4.894531 4.894531 4 6 4 Z M 6 4 "/>
</g>
</svg>
