<?xml version="1.0" encoding="UTF-8"?>
<svg xmlns="http://www.w3.org/2000/svg" xmlns:xlink="http://www.w3.org/1999/xlink" width="400px" height="400px" viewBox="0 0 400 400" version="1.1">
<g id="surface1">
<rect x="0" y="0" width="400" height="400" style="fill:rgb(0%,0%,0%);fill-opacity:1;stroke:none;"/>
<path style=" stroke:none;fill-rule:nonzero;fill:rgb(100%,100%,100%);fill-opacity:1;" d="M 311.109375 22.222656 L 88.890625 22.222656 C 76.617188 22.222656 66.667969 32.171875 66.667969 44.445312 L 66.667969 355.554688 C 66.667969 367.828125 76.617188 377.777344 88.890625 377.777344 L 311.109375 377.777344 C 323.382812 377.777344 333.332031 367.828125 333.332031 355.554688 L 333.332031 44.445312 C 333.332031 32.171875 323.382812 22.222656 311.109375 22.222656 Z M 144.445312 288.890625 L 122.222656 288.890625 L 122.222656 266.667969 L 144.445312 266.667969 Z M 144.445312 244.445312 L 122.222656 244.445312 L 122.222656 222.222656 L 144.445312 222.222656 Z M 144.445312 200 L 122.222656 200 L 122.222656 177.777344 L 144.445312 177.777344 Z M 144.445312 155.554688 L 122.222656 155.554688 L 122.222656 133.332031 L 144.445312 133.332031 Z M 144.445312 111.109375 L 122.222656 111.109375 L 122.222656 88.890625 L 144.445312 88.890625 Z M 277.777344 288.890625 L 166.667969 288.890625 L 166.667969 266.667969 L 277.777344 266.667969 Z M 277.777344 244.445312 L 166.667969 244.445312 L 166.667969 222.222656 L 277.777344 222.222656 Z M 277.777344 200 L 166.667969 200 L 166.667969 177.777344 L 277.777344 177.777344 Z M 277.777344 155.554688 L 166.667969 155.554688 L 166.667969 133.332031 L 277.777344 133.332031 Z M 277.777344 111.109375 L 166.667969 111.109375 L 166.667969 88.890625 L 277.777344 88.890625 Z M 277.777344 111.109375 "/>
</g>
</svg>
