<?xml version="1.0" encoding="UTF-8"?>
<svg xmlns="http://www.w3.org/2000/svg" xmlns:xlink="http://www.w3.org/1999/xlink" width="400px" height="400px" viewBox="0 0 400 400" version="1.1">
<g id="surface1">
<rect x="0" y="0" width="400" height="400" style="fill:rgb(0%,0%,0%);fill-opacity:1;stroke:none;"/>
<path style=" stroke:none;fill-rule:nonzero;fill:rgb(100%,100%,100%);fill-opacity:1;" d="M 166.8125 47.332031 C 185.410156 21.417969 224.285156 23.515625 240.820312 49.871094 C 244.734375 56.113281 246.351562 63.132812 247.226562 70.40625 C 248.066406 77.429688 246.117188 76.277344 253.441406 76.355469 C 259.855469 76.425781 266.269531 76.363281 272.683594 76.371094 C 280.886719 76.382812 284.855469 80.175781 285.695312 88.308594 C 286.875 99.722656 288.28125 111.113281 289.578125 122.515625 C 290.792969 133.152344 291.992188 143.785156 293.191406 154.421875 C 294.824219 168.871094 296.433594 183.324219 298.074219 197.773438 C 299.238281 207.996094 300.5 218.210938 301.589844 228.445312 C 301.851562 230.910156 302 233.457031 301.4375 235.910156 C 300.097656 241.753906 295.25 245.148438 288.296875 245.152344 C 267.21875 245.171875 246.144531 245.160156 225.066406 245.160156 C 189.660156 245.15625 154.253906 245.164062 118.851562 245.148438 C 114.761719 245.148438 110.925781 244.367188 107.804688 241.394531 C 103.71875 237.5 104.019531 232.554688 104.535156 227.632812 C 105.367188 219.710938 106.4375 211.8125 107.316406 203.894531 C 108.664062 191.746094 109.921875 179.585938 111.246094 167.433594 C 112.261719 158.109375 113.320312 148.789062 114.347656 139.464844 C 115.84375 125.914062 117.328125 112.367188 118.8125 98.816406 C 119.191406 95.34375 119.605469 91.875 119.90625 88.398438 C 120.578125 80.597656 125.097656 76.390625 132.964844 76.367188 C 140.214844 76.347656 147.460938 76.363281 154.710938 76.363281 C 158.292969 76.367188 158.207031 76.363281 158.355469 72.890625 C 158.75 63.644531 160.957031 54.972656 166.8125 47.332031 M 141.65625 139.375 C 139.230469 144.492188 136.839844 149.617188 134.988281 154.984375 C 131.230469 165.867188 128.066406 176.878906 127.554688 188.460938 C 127.34375 193.183594 126.980469 197.941406 128.65625 202.558594 C 132.144531 212.171875 141.535156 215.355469 150.027344 209.742188 C 152.121094 208.359375 153.972656 206.6875 155.710938 204.878906 C 159.808594 200.617188 163.820312 196.265625 168.074219 192.160156 C 173.195312 187.222656 179.347656 184.710938 186.582031 184.789062 C 197.414062 184.90625 208.246094 184.851562 219.078125 184.804688 C 225.230469 184.777344 230.644531 186.71875 235.488281 190.46875 C 239.136719 193.289062 242.167969 196.726562 245.289062 200.074219 C 248.976562 204.03125 252.496094 208.160156 257.367188 210.804688 C 262.484375 213.582031 268.140625 212.894531 272.347656 208.914062 C 274.78125 206.613281 276.203125 203.726562 277.261719 200.621094 C 279.191406 194.972656 278.25 189.195312 277.609375 183.539062 C 276.484375 173.59375 273.785156 163.972656 270.386719 154.566406 C 267.925781 147.742188 265.183594 141.027344 261.402344 134.816406 C 258.089844 129.371094 253.820312 124.84375 247.726562 122.503906 C 240.691406 119.800781 233.5625 119.855469 226.519531 122.523438 C 223.511719 123.664062 220.492188 124.195312 217.265625 124.160156 C 207.769531 124.058594 198.269531 124.058594 188.769531 124.160156 C 185.300781 124.195312 182.078125 123.585938 178.792969 122.417969 C 170.671875 119.53125 162.578125 119.730469 154.917969 124.011719 C 148.796875 127.433594 144.898438 132.90625 141.65625 139.375 M 231.867188 58.382812 C 229.914062 54.765625 227.515625 51.503906 224.34375 48.839844 C 216.074219 41.90625 206.554688 39.851562 196.082031 41.632812 C 179.378906 44.476562 169.957031 60.121094 170.570312 74.484375 C 170.628906 75.875 171.25 76.402344 172.585938 76.375 C 174.582031 76.335938 176.582031 76.371094 178.578125 76.371094 C 196.554688 76.371094 214.53125 76.332031 232.507812 76.417969 C 234.84375 76.429688 235.558594 75.660156 235.488281 73.40625 C 235.328125 68.257812 234.347656 63.339844 231.867188 58.382812 Z M 231.867188 58.382812 "/>
<path style=" stroke:none;fill-rule:nonzero;fill:rgb(100%,100%,100%);fill-opacity:1;" d="M 220.917969 260.78125 C 237.671875 256.667969 251.875 264.695312 255.863281 279.648438 C 260.523438 297.121094 247.550781 313.796875 229.484375 314.179688 C 213.636719 314.519531 201.445312 301.917969 201.414062 286.886719 C 201.390625 274.859375 209.125 264.570312 220.917969 260.78125 M 218.648438 274.894531 C 214.757812 278.996094 213.667969 283.964844 214.160156 289.414062 C 214.90625 297.679688 222.25 303.945312 230.425781 303.304688 C 237.605469 302.746094 243.085938 297.179688 244.296875 289.214844 C 245.320312 282.488281 242.066406 275.492188 236.464844 272.371094 C 230.789062 269.207031 224.285156 270.046875 218.648438 274.894531 Z M 218.648438 274.894531 "/>
<path style=" stroke:none;fill-rule:nonzero;fill:rgb(100%,100%,100%);fill-opacity:1;" d="M 162.050781 274.988281 C 162.164062 281.699219 161.121094 280.894531 167.753906 280.953125 C 171.667969 280.984375 175.585938 280.890625 179.5 280.976562 C 181.34375 281.015625 182.003906 280.304688 181.976562 278.480469 C 181.898438 273.648438 182.0625 268.8125 181.898438 263.988281 C 181.8125 261.429688 182.722656 260.5625 185.230469 260.773438 C 187.460938 260.960938 189.738281 260.9375 191.96875 260.746094 C 194.148438 260.558594 194.664062 261.46875 194.648438 263.460938 C 194.578125 273.125 194.613281 282.789062 194.609375 292.457031 C 194.609375 298.539062 194.550781 304.621094 194.636719 310.699219 C 194.667969 312.765625 193.863281 313.570312 191.855469 313.507812 C 189.609375 313.433594 187.351562 313.402344 185.109375 313.527344 C 182.757812 313.660156 181.835938 312.78125 181.894531 310.359375 C 182.03125 305.027344 181.882812 299.695312 181.976562 294.363281 C 182.015625 292.363281 181.414062 291.53125 179.289062 291.585938 C 174.457031 291.710938 169.621094 291.734375 164.792969 291.582031 C 162.492188 291.507812 161.972656 292.417969 162.015625 294.511719 C 162.125 299.839844 161.957031 305.175781 162.074219 310.507812 C 162.125 312.835938 161.1875 313.628906 158.972656 313.519531 C 156.730469 313.40625 154.476562 313.460938 152.226562 313.496094 C 150.628906 313.519531 149.796875 313.011719 149.800781 311.195312 C 149.847656 295.117188 149.847656 279.039062 149.808594 262.957031 C 149.804688 261.316406 150.453125 260.753906 152.03125 260.800781 C 154.527344 260.875 157.035156 260.910156 159.527344 260.78125 C 161.398438 260.6875 162.070312 261.457031 162.050781 263.242188 C 162.007812 267.074219 162.042969 270.90625 162.050781 274.988281 Z M 162.050781 274.988281 "/>
<path style=" stroke:none;fill-rule:nonzero;fill:rgb(100%,100%,100%);fill-opacity:1;" d="M 130.363281 297.710938 C 129.710938 294.324219 127.027344 293.550781 124.507812 292.738281 C 121.03125 291.613281 117.417969 290.890625 113.988281 289.648438 C 105.492188 286.570312 101.5 276.824219 105.4375 268.746094 C 107.941406 263.601562 112.546875 261.105469 117.953125 260.214844 C 124.746094 259.097656 131.300781 259.644531 136.671875 264.644531 C 139.828125 267.589844 141.640625 271.222656 141.75 276.003906 C 137.953125 276.003906 134.328125 276.039062 130.703125 275.980469 C 129.804688 275.96875 129.566406 275.140625 129.375 274.386719 C 128.011719 269.035156 120.636719 268.613281 117.339844 271.257812 C 114.90625 273.210938 115.207031 276.859375 117.964844 278.722656 C 120.421875 280.382812 123.3125 281 126.109375 281.808594 C 130.035156 282.945312 134.035156 283.988281 137.28125 286.597656 C 145.25 293 143.960938 305.398438 134.808594 311.160156 C 127.640625 315.671875 116.285156 315.359375 109.457031 310.410156 C 105.964844 307.875 104.167969 304.28125 103.386719 300.132812 C 103.042969 298.3125 103.640625 297.226562 105.742188 297.390625 C 106.984375 297.484375 108.242188 297.476562 109.488281 297.40625 C 112.375 297.246094 114.808594 297.148438 115.933594 300.9375 C 116.824219 303.941406 121.433594 304.964844 125.628906 303.890625 C 129.050781 303.011719 130.347656 301.382812 130.363281 297.710938 Z M 130.363281 297.710938 "/>
<path style=" stroke:none;fill-rule:nonzero;fill:rgb(100%,100%,100%);fill-opacity:1;" d="M 263.890625 268.503906 C 263.882812 260.816406 263.882812 260.820312 271.332031 260.816406 C 276.414062 260.816406 281.503906 260.621094 286.574219 260.855469 C 293.050781 261.160156 298.53125 263.59375 301.203125 269.941406 C 303.957031 276.480469 303.8125 282.984375 299.226562 288.769531 C 296.210938 292.570312 291.828125 293.9375 287.183594 294.644531 C 284.285156 295.089844 281.378906 295.144531 278.46875 295.066406 C 276.757812 295.023438 276.101562 295.621094 276.136719 297.382812 C 276.21875 301.960938 276.101562 306.542969 276.175781 311.125 C 276.203125 312.851562 275.535156 313.550781 273.851562 313.519531 C 271.4375 313.472656 269.015625 313.410156 266.605469 313.53125 C 264.3125 313.644531 263.847656 312.527344 263.855469 310.484375 C 263.917969 296.574219 263.890625 282.664062 263.890625 268.503906 M 291.242188 276.140625 C 290.277344 272.675781 287.890625 270.878906 284.40625 270.59375 C 282.261719 270.417969 280.097656 270.507812 277.941406 270.492188 C 276.710938 270.480469 276.152344 271.09375 276.160156 272.339844 C 276.179688 275.90625 276.179688 279.472656 276.144531 283.042969 C 276.132812 284.292969 276.632812 284.875 277.910156 284.847656 C 279.734375 284.808594 281.5625 284.871094 283.386719 284.828125 C 288.761719 284.710938 291.441406 281.894531 291.242188 276.140625 Z M 291.242188 276.140625 "/>
<path style=" stroke:none;fill-rule:nonzero;fill:rgb(100%,100%,100%);fill-opacity:1;" d="M 144.183594 365.800781 C 140.070312 366.550781 135.777344 368.121094 132.167969 364.636719 C 130.851562 363.371094 129.980469 364.089844 128.925781 364.769531 C 123.609375 368.183594 117.941406 368.894531 111.976562 366.84375 C 101.261719 363.164062 99.003906 351.359375 107.574219 343.945312 C 108.445312 343.191406 109.355469 342.480469 110.1875 341.800781 C 110.1875 340.644531 109.386719 340.042969 108.945312 339.269531 C 105.339844 332.957031 107.757812 325.855469 114.53125 323.265625 C 118.890625 321.59375 123.308594 321.59375 127.628906 323.535156 C 131.355469 325.207031 133.890625 329.359375 133.636719 333.113281 C 133.535156 334.546875 132.992188 335.261719 131.5 335.199219 C 130.339844 335.152344 129.164062 335.105469 128.007812 335.214844 C 125.851562 335.417969 124.382812 335.015625 123.984375 332.445312 C 123.621094 330.089844 121.648438 329.859375 119.699219 330.183594 C 117.726562 330.511719 116.96875 331.855469 117.011719 333.78125 C 117.042969 335.007812 117.472656 336.035156 118.246094 336.96875 C 121.804688 341.269531 125.898438 345.058594 129.84375 349.140625 C 131.035156 348.351562 131.175781 347.132812 131.285156 346.054688 C 131.53125 343.648438 132.753906 342.695312 135.097656 343.015625 C 135.421875 343.0625 135.761719 343.023438 136.09375 343.019531 C 141.054688 343.007812 141.097656 343.015625 140.09375 347.789062 C 139.574219 350.238281 138.714844 352.601562 137.390625 354.734375 C 136.601562 356.003906 136.683594 356.90625 137.699219 358.027344 C 139.929688 360.488281 142.019531 363.082031 144.183594 365.800781 M 120.5 352.246094 C 119.886719 351.570312 119.269531 350.902344 118.65625 350.226562 C 116 347.296875 113.785156 347.710938 112.199219 351.414062 C 111.203125 353.738281 111.726562 355.742188 113.308594 357.621094 C 115.886719 360.675781 121.78125 360.6875 124.722656 356.839844 C 123.414062 355.410156 122.078125 353.957031 120.5 352.246094 Z M 120.5 352.246094 "/>
<path style=" stroke:none;fill-rule:nonzero;fill:rgb(100%,100%,100%);fill-opacity:1;" d="M 254.648438 326.441406 C 259.667969 339.726562 264.632812 352.832031 269.808594 366.507812 C 266.21875 366.507812 263.183594 366.554688 260.15625 366.476562 C 259.160156 366.453125 259.023438 365.425781 258.660156 364.683594 C 257.613281 362.546875 257.738281 359.402344 255.59375 358.378906 C 253.675781 357.460938 251.03125 358.039062 248.707031 358.003906 C 246.546875 357.972656 244.378906 358.074219 242.21875 357.972656 C 240.515625 357.898438 239.542969 358.59375 239.167969 360.21875 C 239.128906 360.382812 239.082031 360.546875 239.003906 360.691406 C 238.003906 362.558594 238.265625 365.632812 236.242188 366.261719 C 233.328125 367.167969 230.0625 366.683594 226.800781 366.4375 C 227.089844 363.734375 228.222656 361.671875 229.015625 359.527344 C 233.199219 348.21875 237.53125 336.964844 241.679688 325.644531 C 242.351562 323.816406 243.269531 323.144531 245.121094 323.273438 C 246.777344 323.386719 248.472656 323.472656 250.109375 323.25 C 252.605469 322.914062 254.082031 323.785156 254.648438 326.441406 M 248.707031 349.503906 C 249.980469 349.371094 251.34375 349.839844 252.765625 348.871094 C 251.460938 344.097656 249.890625 339.394531 247.992188 334.285156 C 246.292969 339.53125 244.757812 344.273438 243.214844 349.042969 C 245.101562 349.8125 246.691406 349.355469 248.707031 349.503906 Z M 248.707031 349.503906 "/>
<path style=" stroke:none;fill-rule:nonzero;fill:rgb(100%,100%,100%);fill-opacity:1;" d="M 182.375 350.507812 C 178.980469 351.667969 175.652344 351.816406 172.320312 351.660156 C 170.308594 351.5625 169.464844 352.195312 169.5625 354.328125 C 169.707031 357.566406 169.542969 360.816406 169.613281 364.058594 C 169.65625 365.824219 169.070312 366.695312 167.179688 366.601562 C 165.269531 366.507812 163.351562 366.554688 161.441406 366.601562 C 159.992188 366.636719 159.320312 366.066406 159.324219 364.550781 C 159.347656 351.492188 159.34375 338.429688 159.328125 325.367188 C 159.328125 324.085938 159.671875 323.285156 161.136719 323.316406 C 167.53125 323.457031 173.933594 322.894531 180.320312 323.695312 C 189.082031 324.792969 192.3125 332.3125 191.441406 339.464844 C 190.777344 344.964844 187.742188 348.582031 182.375 350.507812 M 170.984375 331.582031 C 169.742188 331.679688 169.601562 332.554688 169.605469 333.535156 C 169.609375 334.859375 169.609375 336.1875 169.605469 337.511719 C 169.601562 343.832031 170.65625 344.609375 176.980469 342.960938 C 177.058594 342.941406 177.140625 342.921875 177.21875 342.902344 C 180.121094 342.078125 181.554688 340.351562 181.625 337.609375 C 181.695312 334.828125 180.1875 332.820312 177.355469 331.914062 C 175.410156 331.289062 173.410156 331.582031 170.984375 331.582031 Z M 170.984375 331.582031 "/>
<path style=" stroke:none;fill-rule:nonzero;fill:rgb(100%,100%,100%);fill-opacity:1;" d="M 287.296875 333.8125 C 288.875 330.761719 290.40625 327.898438 291.847656 324.984375 C 292.484375 323.703125 293.34375 323.195312 294.800781 323.25 C 297.765625 323.355469 300.734375 323.28125 304.011719 323.28125 C 303.363281 325.527344 302.285156 327.101562 301.351562 328.722656 C 297.816406 334.855469 294.34375 341.03125 290.625 347.054688 C 289.089844 349.542969 288.683594 352.054688 288.816406 354.863281 C 288.96875 358.101562 288.871094 361.351562 288.890625 364.597656 C 288.898438 365.90625 288.375 366.667969 286.960938 366.570312 C 286.878906 366.566406 286.792969 366.574219 286.710938 366.574219 C 277.492188 366.410156 278.777344 368.144531 279.058594 359.175781 C 279.253906 352.921875 277.945312 347.511719 274.417969 342.3125 C 270.96875 337.222656 268.148438 331.707031 265.101562 326.351562 C 264.628906 325.519531 263.878906 324.742188 264.105469 323.300781 C 267.46875 323.300781 270.863281 323.304688 274.253906 323.296875 C 275.324219 323.292969 275.59375 324.136719 275.96875 324.867188 C 277.984375 328.796875 279.984375 332.734375 282.019531 336.652344 C 282.546875 337.664062 282.941406 338.789062 284.207031 339.691406 C 285.230469 337.742188 286.222656 335.863281 287.296875 333.8125 Z M 287.296875 333.8125 "/>
<path style=" stroke:none;fill-rule:nonzero;fill:rgb(100%,100%,100%);fill-opacity:1;" d="M 214.5 357.929688 C 216.746094 357.929688 218.78125 357.6875 220.730469 357.988281 C 224.453125 358.5625 222.113281 361.574219 222.566406 363.425781 C 222.886719 364.722656 223.152344 366.585938 220.683594 366.578125 C 213.28125 366.554688 205.875 366.566406 198.472656 366.589844 C 197.007812 366.597656 196.390625 365.988281 196.390625 364.496094 C 196.417969 351.4375 196.414062 338.375 196.386719 325.316406 C 196.386719 323.789062 197.085938 323.257812 198.519531 323.292969 C 200.347656 323.335938 202.191406 323.421875 204.007812 323.242188 C 206.03125 323.042969 206.601562 323.839844 206.589844 325.773438 C 206.523438 335.089844 206.5625 344.40625 206.5625 353.722656 C 206.5625 354.390625 206.609375 355.058594 206.566406 355.71875 C 206.460938 357.308594 207.144531 358 208.761719 357.9375 C 210.589844 357.863281 212.421875 357.921875 214.5 357.929688 Z M 214.5 357.929688 "/>
<path style=" stroke:none;fill-rule:nonzero;fill:rgb(100%,100%,100%);fill-opacity:1;" d="M 185.058594 149.84375 C 185.125 152.054688 185.1875 154.054688 185.144531 156.050781 C 185.089844 158.390625 183.976562 159.511719 181.59375 159.605469 C 179.597656 159.683594 177.597656 159.667969 175.601562 159.636719 C 173.917969 159.609375 173.160156 160.410156 173.179688 162.0625 C 173.195312 163.808594 173.179688 165.554688 173.175781 167.304688 C 173.175781 167.71875 173.257812 168.164062 173.144531 168.546875 C 171.796875 173.082031 168.039062 170.636719 165.347656 171.121094 C 163.425781 171.46875 161.871094 170.609375 161.804688 168.3125 C 161.75 166.398438 161.78125 164.484375 161.792969 162.570312 C 161.804688 160.550781 161.023438 159.453125 158.800781 159.609375 C 157.0625 159.730469 155.308594 159.652344 153.5625 159.621094 C 151.460938 159.578125 150.324219 158.515625 150.304688 156.371094 C 150.289062 154.625 150.378906 152.871094 150.265625 151.128906 C 150.113281 148.753906 151.363281 147.742188 153.503906 147.648438 C 155.324219 147.566406 157.164062 147.597656 158.984375 147.738281 C 160.898438 147.882812 161.8125 147.117188 161.800781 145.203125 C 161.785156 143.289062 161.78125 141.375 161.789062 139.460938 C 161.796875 137.25 162.84375 136.054688 165.125 136.019531 C 173.609375 135.898438 173.289062 135.808594 173.195312 143.457031 C 173.144531 147.503906 173.199219 147.398438 177.28125 147.554688 C 179.976562 147.65625 183.085938 146.539062 185.058594 149.84375 Z M 185.058594 149.84375 "/>
<path style=" stroke:none;fill-rule:nonzero;fill:rgb(100%,100%,100%);fill-opacity:1;" d="M 251.1875 147.058594 C 256.96875 147.605469 260.039062 151.753906 258.085938 156.082031 C 256.832031 158.867188 253.703125 160.558594 250.75 160.054688 C 247.835938 159.550781 245.46875 157.039062 245.164062 154.117188 C 244.875 151.371094 246.578125 148.839844 249.582031 147.585938 C 250.042969 147.394531 250.523438 147.261719 251.1875 147.058594 Z M 251.1875 147.058594 "/>
<path style=" stroke:none;fill-rule:nonzero;fill:rgb(100%,100%,100%);fill-opacity:1;" d="M 231.976562 156.261719 C 229.996094 159.25 227.167969 160.613281 224.558594 159.980469 C 221.769531 159.304688 219.6875 157.140625 219.363281 154.578125 C 218.988281 151.605469 220.148438 149.234375 222.632812 147.890625 C 225.21875 146.492188 228.042969 146.777344 230.285156 148.660156 C 232.476562 150.496094 233.0625 152.9375 231.976562 156.261719 Z M 231.976562 156.261719 "/>
<path style=" stroke:none;fill-rule:nonzero;fill:rgb(100%,100%,100%);fill-opacity:1;" d="M 235.96875 135.277344 C 239.984375 134.160156 242.324219 134.78125 244.1875 137.324219 C 245.648438 139.320312 245.679688 142.539062 244.203125 144.605469 C 242.597656 146.855469 240.339844 147.730469 237.667969 147.316406 C 234.902344 146.890625 232.855469 144.914062 232.445312 142.28125 C 231.972656 139.257812 233.101562 136.90625 235.96875 135.277344 Z M 235.96875 135.277344 "/>
<path style=" stroke:none;fill-rule:nonzero;fill:rgb(100%,100%,100%);fill-opacity:1;" d="M 239.378906 159.871094 C 242.355469 160.507812 244.632812 161.75 245.148438 164.828125 C 245.574219 167.347656 245.082031 169.636719 242.878906 171.269531 C 240.472656 173.054688 237.414062 173.105469 234.957031 171.402344 C 232.914062 169.992188 231.886719 167.25 232.488281 164.804688 C 233.191406 161.929688 235.605469 160.144531 239.378906 159.871094 Z M 239.378906 159.871094 "/>
</g>
</svg>
