<?xml version="1.0" encoding="UTF-8"?>
<svg xmlns="http://www.w3.org/2000/svg" xmlns:xlink="http://www.w3.org/1999/xlink" width="400px" height="400px" viewBox="0 0 400 400" version="1.1">
<g id="surface1">
<rect x="0" y="0" width="400" height="400" style="fill:rgb(0%,0%,0%);fill-opacity:1;stroke:none;"/>
<path style=" stroke:none;fill-rule:nonzero;fill:rgb(100%,100%,100%);fill-opacity:1;" d="M 179.296875 275.625 C 173.59375 271.5625 165.46875 267.5 154.0625 265.078125 L 153.28125 265.078125 L 153.28125 237.421875 C 160.625 239.0625 167.890625 241.484375 174.375 246.328125 L 184.140625 232.5 C 174.375 226.015625 163.828125 221.953125 153.28125 221.09375 L 153.28125 213.75 L 143.515625 213.75 L 143.515625 221.09375 C 133.75 221.875 125.625 224.375 119.921875 230 C 114.21875 235.703125 111.015625 242.1875 111.015625 251.09375 C 111.015625 260 114.296875 266.5625 119.140625 270.625 C 123.984375 274.6875 132.109375 278.75 143.515625 281.171875 L 143.515625 310.46875 C 134.609375 308.828125 125.625 304.765625 117.5 297.5 L 106.953125 310.46875 C 117.5 320.234375 129.6875 325.078125 143.515625 326.71875 L 143.515625 335.625 L 154.0625 335.625 L 154.0625 325.078125 C 163.828125 324.296875 171.953125 321.796875 178.4375 316.171875 C 184.140625 310.46875 187.34375 303.203125 187.34375 295.078125 C 187.421875 286.953125 184.921875 280.46875 179.296875 275.625 Z M 143.515625 263.4375 C 137.8125 261.796875 133.75 259.375 132.109375 257.734375 C 129.6875 255.3125 128.828125 252.890625 128.828125 249.609375 C 128.828125 246.328125 130.46875 243.90625 132.890625 241.484375 C 135.3125 239.0625 138.59375 238.203125 143.4375 237.421875 L 143.4375 263.4375 Z M 163.90625 306.484375 C 161.484375 308.90625 157.421875 309.765625 152.5 310.546875 L 152.5 283.75 C 158.203125 285.390625 162.265625 287.8125 164.6875 289.453125 C 167.109375 291.09375 167.96875 294.296875 167.96875 297.578125 C 167.96875 301.640625 166.328125 304.0625 163.90625 306.484375 Z M 163.90625 306.484375 "/>
<path style=" stroke:none;fill-rule:nonzero;fill:rgb(100%,100%,100%);fill-opacity:1;" d="M 254.0625 8.984375 L 54.921875 8.984375 L 54.921875 391.015625 L 344.296875 391.015625 L 344.296875 99.21875 Z M 258.90625 36.640625 L 317.421875 95.15625 L 258.90625 95.15625 Z M 70.3125 374.765625 L 70.3125 25.234375 L 242.65625 25.234375 L 242.65625 102.421875 C 242.65625 107.265625 246.71875 110.546875 250.78125 110.546875 L 328.828125 110.546875 L 328.828125 374.6875 L 70.3125 374.6875 Z M 70.3125 374.765625 "/>
</g>
</svg>
