<?xml version="1.0" encoding="UTF-8"?>
<svg xmlns="http://www.w3.org/2000/svg" xmlns:xlink="http://www.w3.org/1999/xlink" width="px" height="px" viewBox="0 0 256 256" version="1.1">
<g id="surface1">
<rect x="0" y="0" width="256" height="256" style="fill:rgb(0%,0%,0%);fill-opacity:1;stroke:none;"/>
<path style=" stroke:none;fill-rule:nonzero;fill:rgb(100%,100%,100%);fill-opacity:1;" d="M 114.75 176.398438 C 111.101562 173.800781 105.898438 171.199219 98.601562 169.648438 L 98.101562 169.648438 L 98.101562 151.949219 C 102.800781 153 107.449219 154.550781 111.601562 157.648438 L 117.851562 148.800781 C 111.601562 144.648438 104.851562 142.050781 98.101562 141.5 L 98.101562 136.800781 L 91.851562 136.800781 L 91.851562 141.5 C 85.601562 142 80.398438 143.601562 76.75 147.199219 C 73.101562 150.851562 71.050781 155 71.050781 160.699219 C 71.050781 166.398438 73.148438 170.601562 76.25 173.199219 C 79.351562 175.800781 84.550781 178.398438 91.851562 179.949219 L 91.851562 198.699219 C 86.148438 197.648438 80.398438 195.050781 75.199219 190.398438 L 68.449219 198.699219 C 75.199219 204.949219 83 208.050781 91.851562 209.101562 L 91.851562 214.800781 L 98.601562 214.800781 L 98.601562 208.050781 C 104.851562 207.550781 110.050781 205.949219 114.199219 202.351562 C 117.851562 198.699219 119.898438 194.050781 119.898438 188.851562 C 119.949219 183.648438 118.351562 179.5 114.75 176.398438 Z M 91.851562 168.601562 C 88.199219 167.550781 85.601562 166 84.550781 164.949219 C 83 163.398438 82.449219 161.851562 82.449219 159.75 C 82.449219 157.648438 83.5 156.101562 85.050781 154.550781 C 86.601562 153 88.699219 152.449219 91.800781 151.949219 L 91.800781 168.601562 Z M 104.898438 196.148438 C 103.351562 197.699219 100.75 198.25 97.601562 198.75 L 97.601562 181.601562 C 101.25 182.648438 103.851562 184.199219 105.398438 185.25 C 106.949219 186.300781 107.5 188.351562 107.5 190.449219 C 107.5 193.050781 106.449219 194.601562 104.898438 196.148438 Z M 104.898438 196.148438 "/>
<path style=" stroke:none;fill-rule:nonzero;fill:rgb(100%,100%,100%);fill-opacity:1;" d="M 162.601562 5.75 L 35.148438 5.75 L 35.148438 250.25 L 220.351562 250.25 L 220.351562 63.5 Z M 165.699219 23.449219 L 203.148438 60.898438 L 165.699219 60.898438 Z M 45 239.851562 L 45 16.148438 L 155.300781 16.148438 L 155.300781 65.550781 C 155.300781 68.648438 157.898438 70.75 160.5 70.75 L 210.449219 70.75 L 210.449219 239.800781 L 45 239.800781 Z M 45 239.851562 "/>
</g>
</svg>
