<?xml version="1.0" encoding="UTF-8"?>
<svg xmlns="http://www.w3.org/2000/svg" xmlns:xlink="http://www.w3.org/1999/xlink" width="400px" height="400px" viewBox="0 0 400 400" version="1.1">
<g id="surface1">
<rect x="0" y="0" width="400" height="400" style="fill:rgb(0%,0%,0%);fill-opacity:1;stroke:none;"/>
<path style=" stroke:none;fill-rule:nonzero;fill:rgb(100%,100%,100%);fill-opacity:1;" d="M 168 24 C 92.800781 24 32 84.800781 32 160 C 32 235.199219 92.800781 296 168 296 C 194.835938 296 219.769531 288.160156 240.828125 274.78125 L 339.03125 372.96875 L 372.96875 339.03125 L 276.1875 242.234375 C 293.566406 219.390625 304 190.964844 304 160 C 304 84.800781 243.199219 24 168 24 Z M 168 56 C 225.601562 56 272 102.398438 272 160 C 272 217.601562 225.601562 264 168 264 C 110.398438 264 64 217.601562 64 160 C 64 102.398438 110.398438 56 168 56 Z M 168 56 "/>
</g>
</svg>
