<?xml version="1.0" encoding="UTF-8"?>
<svg xmlns="http://www.w3.org/2000/svg" xmlns:xlink="http://www.w3.org/1999/xlink" width="px" height="px" viewBox="0 0 400 400" version="1.1">
<g id="surface1">
<path style=" stroke:none;fill-rule:nonzero;fill:rgb(100%,70.588237%,0%);fill-opacity:1;" d="M 366.667969 163.5 C 364.699219 157.292969 359.296875 152.800781 352.832031 152 L 257.832031 139 L 214.667969 58.832031 C 211.757812 53.441406 206.125 50.082031 200 50.082031 C 193.875 50.082031 188.242188 53.441406 185.332031 58.832031 L 142.832031 139 L 47.832031 152 C 41.433594 152.863281 36.109375 157.34375 34.167969 163.5 C 32.488281 169.492188 34.289062 175.917969 38.832031 180.167969 L 107 242.332031 L 90.332031 329.667969 C 88.667969 336.136719 91.027344 342.976562 96.332031 347.042969 C 101.632812 351.109375 108.847656 351.617188 114.667969 348.332031 L 200 306.332031 L 285.332031 348.332031 C 287.617188 349.441406 290.128906 350.011719 292.667969 350 C 297.660156 350.082031 302.425781 347.921875 305.652344 344.109375 C 308.882812 340.300781 310.234375 335.246094 309.332031 330.332031 L 292.667969 243 L 360.832031 180.832031 C 366.058594 176.734375 368.347656 169.925781 366.667969 163.5 Z M 366.667969 163.5 "/>
</g>
</svg>
