<?xml version="1.0" encoding="UTF-8"?>
<svg xmlns="http://www.w3.org/2000/svg" xmlns:xlink="http://www.w3.org/1999/xlink" width="px" height="px" viewBox="0 0 400 400" version="1.1">
<g id="surface1">
<rect x="0" y="0" width="400" height="400" style="fill:rgb(0%,0%,0%);fill-opacity:1;stroke:none;"/>
<path style=" stroke:none;fill-rule:nonzero;fill:rgb(100%,100%,100%);fill-opacity:1;" d="M 350 333.332031 C 350 351.742188 335.074219 366.667969 316.667969 366.667969 L 83.332031 366.667969 C 64.925781 366.667969 50 351.742188 50 333.332031 C 50 278.105469 94.773438 233.332031 150 233.332031 L 250 233.332031 C 305.226562 233.332031 350 278.105469 350 333.332031 Z M 200 200 C 246.023438 200 283.332031 162.691406 283.332031 116.667969 C 283.332031 70.644531 246.023438 33.332031 200 33.332031 C 153.976562 33.332031 116.667969 70.644531 116.667969 116.667969 C 116.667969 162.691406 153.976562 200 200 200 Z M 200 200 "/>
</g>
</svg>
